<?xml version="1.0" standalone="no"?>
<!DOCTYPE svg PUBLIC "-//W3C//DTD SVG 20010904//EN"
 "http://www.w3.org/TR/2001/REC-SVG-20010904/DTD/svg10.dtd">
<svg version="1.0" xmlns="http://www.w3.org/2000/svg"
 width="362.000000pt" height="362.000000pt" viewBox="0 0 362.000000 362.000000"
 preserveAspectRatio="xMidYMid meet">
<metadata>
Created by potrace 1.11, written by Peter Selinger 2001-2013
</metadata>
<g transform="translate(0.000000,362.000000) scale(0.100000,-0.100000)"
fill="#000000" stroke="none">
<path d="M1303 3387 c-271 -128 -492 -235 -490 -240 2 -6 423 -207 647 -309
25 -11 105 -49 179 -84 73 -35 143 -67 155 -70 13 -3 45 5 77 20 30 13 160 74
289 135 l235 110 38 -75 c35 -69 37 -78 26 -108 -15 -42 -5 -84 24 -97 22 -10
22 -14 19 -110 l-4 -99 49 0 50 0 -3 58 c-2 31 -6 70 -9 85 -3 20 2 37 15 54
52 66 3 176 -72 164 -4 0 -10 11 -13 27 -4 15 -15 52 -25 82 -11 30 -18 55
-17 55 1 1 77 37 170 80 135 63 165 81 156 91 -6 8 -15 14 -19 14 -4 0 -68 29
-141 64 -74 35 -192 91 -264 124 -71 33 -179 83 -240 112 -241 113 -322 150
-331 149 -5 0 -231 -105 -501 -232z"/>
<path d="M1220 2568 c0 -300 -2 -293 97 -346 122 -64 333 -99 548 -89 148 7
169 10 280 38 95 24 188 72 216 110 18 25 19 45 19 283 0 141 -2 256 -4 256
-2 0 -106 -49 -232 -108 -126 -59 -253 -119 -283 -133 l-55 -26 -110 53 c-61
29 -193 91 -293 137 l-183 86 0 -261z"/>
<path d="M685 2236 c-40 -18 -74 -56 -89 -100 -9 -26 -12 -121 -11 -334 1
-348 1 -350 110 -450 199 -182 640 -305 1100 -306 560 -1 1113 188 1224 418
20 40 21 60 21 337 0 286 -1 296 -22 339 -13 25 -37 53 -55 63 -64 36 -85 33
-216 -31 -294 -145 -577 -206 -952 -205 -369 1 -715 90 -966 249 -48 30 -105
38 -144 20z m143 -199 c194 -108 469 -190 717 -214 143 -14 499 -8 625 11 224
33 443 98 615 182 50 24 94 44 98 44 10 0 9 -495 -2 -522 -18 -47 -86 -100
-206 -158 -169 -84 -410 -146 -640 -168 -102 -9 -377 -9 -475 0 -325 31 -638
139 -767 263 l-53 51 0 277 c0 152 2 277 5 277 3 0 40 -19 83 -43z"/>
<path d="M673 1183 c-37 -21 -66 -56 -80 -98 -5 -17 -9 -157 -8 -330 l1 -300
27 -52 c116 -224 634 -402 1172 -403 583 -1 1131 188 1237 426 17 41 19 66 16
348 -3 291 -4 306 -24 333 -32 43 -82 73 -123 73 -25 0 -69 -17 -131 -49 -175
-90 -363 -149 -595 -187 -139 -22 -506 -27 -645 -8 -263 36 -478 107 -675 223
-78 46 -121 52 -172 24z m247 -240 c428 -201 1052 -236 1568 -87 107 31 247
86 329 129 34 18 65 30 68 27 3 -3 5 -117 5 -254 0 -285 0 -284 -82 -348 -188
-149 -599 -252 -1003 -253 -320 0 -606 53 -830 153 -78 35 -180 105 -209 142
l-26 35 0 277 0 276 53 -31 c28 -17 86 -46 127 -66z"/>
</g>
</svg>
